<?xml version="1.0" encoding="UTF-8" standalone="no"?>
<svg
   xmlns:dc="http://purl.org/dc/elements/1.1/"
   xmlns:cc="http://creativecommons.org/ns#"
   xmlns:rdf="http://www.w3.org/1999/02/22-rdf-syntax-ns#"
   xmlns:svg="http://www.w3.org/2000/svg"
   xmlns="http://www.w3.org/2000/svg"
   xmlns:sodipodi="http://sodipodi.sourceforge.net/DTD/sodipodi-0.dtd"
   xmlns:inkscape="http://www.inkscape.org/namespaces/inkscape"
   width="2000"
   height="2000"
   version="1.1"
   viewBox="0 0 529.17188 529.15"
   id="svg22"
   sodipodi:docname="20210501_SGOJ.svg"
   inkscape:version="1.0.2-2 (e86c870879, 2021-01-15)">
  <metadata
     id="metadata28">
    <rdf:RDF>
      <cc:Work
         rdf:about="">
        <dc:format>image/svg+xml</dc:format>
        <dc:type
           rdf:resource="http://purl.org/dc/dcmitype/StillImage" />
        <dc:title></dc:title>
      </cc:Work>
    </rdf:RDF>
  </metadata>
  <defs
     id="defs26">
    <filter
       inkscape:collect="always"
       style="color-interpolation-filters:sRGB"
       id="filter881"
       x="-7.0042229e-06"
       width="1.0000139"
       y="-2.3577011e-05"
       height="1.0000472">
      <feGaussianBlur
         inkscape:collect="always"
         stdDeviation="0.00010396742"
         id="feGaussianBlur883" />
    </filter>
  </defs>
  <sodipodi:namedview
     pagecolor="#ffffff"
     bordercolor="#666666"
     borderopacity="1"
     objecttolerance="10"
     gridtolerance="10"
     guidetolerance="10"
     inkscape:pageopacity="0"
     inkscape:pageshadow="2"
     inkscape:window-width="1153"
     inkscape:window-height="480"
     id="namedview24"
     showgrid="false"
     inkscape:zoom="0.094948421"
     inkscape:cx="1031.3361"
     inkscape:cy="279.09966"
     inkscape:window-x="289"
     inkscape:window-y="320"
     inkscape:window-maximized="0"
     inkscape:current-layer="g20"
     inkscape:document-rotation="0" />
  <g
     id="g20"
     style="filter:url(#filter881)">
    <path
       d="m 128.76476,306.90839 q -4.6617,0 -10.33101,-0.24047 -5.5437,-0.24059 -10.961,-0.72166 -5.29171,-0.36081 -9.70141,-0.84187 v -11.18517 q 4.5357,0.36079 9.44941,0.7216 5.0397,0.3608 9.5754,0.60135 4.5357,0.12037 7.81151,0.12037 6.6776,0 10.457,-0.60134 3.7798,-0.60136 6.04761,-1.92423 1.5119,-0.96215 2.1419,-2.40534 0.75595,-1.44323 0.88194,-3.36746 0.25193,-2.04453 0.25193,-4.44987 0,-3.24725 -0.25193,-5.41199 -0.25198,-2.16493 -1.13389,-3.36755 -0.88195,-1.20272 -2.77181,-1.68373 -1.8899,-0.60133 -4.9137,-0.96213 l -20.66301,-2.28504 q -6.0476,-0.7216 -9.95341,-2.40534 -3.7798,-1.80403 -5.9216,-4.69037 -2.015901,-2.88645 -2.771801,-6.85521 -0.755951,-3.96877 -0.755951,-8.77954 0,-8.05793 2.267902,-12.74821 2.267901,-4.69037 6.4256,-7.09571 4.28371,-2.52564 10.07901,-3.24726 5.7956,-0.84187 12.85101,-0.84187 4.9137,0 10.079,0.36081 5.16571,0.24054 9.70141,0.7216 4.6617,0.36081 7.6855,1.08242 v 10.94417 q -3.1498,-0.48107 -7.4335,-0.84187 -4.1577,-0.3608 -8.69351,-0.48107 -4.5357,-0.24047 -8.4415,-0.24047 -6.5516,0 -10.58301,0.60134 -3.9058,0.48106 -6.0476,1.68373 -2.5198,1.32292 -3.0238,3.72826 -0.50397,2.28504 -0.50397,5.77279 0,4.08907 0.50397,6.3742 0.62997,2.16484 2.6458,3.00665 2.1419,0.84188 6.4256,1.32293 l 20.66301,2.28503 q 3.90581,0.3608 7.05561,1.20263 3.1498,0.72161 5.5437,2.52564 2.5198,1.80402 3.9058,5.17148 0.88194,1.68373 1.2599,3.84856 0.50397,2.16484 0.75596,4.81068 0.37798,2.52564 0.37798,5.77279 0,6.85521 -1.51191,11.42518 -1.3859,4.57018 -4.0317,7.33632 -2.5198,2.64585 -6.2996,4.08907 -3.7798,1.32292 -8.31551,1.68373 -4.5357,0.48105 -9.8274,0.48105 z"
       stroke-width="26.8413"
       style="white-space:pre"
       id="path2" />
    <path
       d="m 208.11081,306.90839 q -9.00191,0 -15.32802,-1.08241 -6.204,-1.20262 -10.34,-3.96877 -4.136,-2.76614 -6.4473,-7.57682 -2.18971,-4.81068 -3.16281,-12.02719 -0.85149,-7.33632 -0.85149,-17.67929 0,-10.34316 0.8515,-17.55928 0.97312,-7.33632 3.28451,-12.1472 2.3113,-4.81067 6.4473,-7.57682 4.136,-2.76614 10.34001,-3.84856 6.3257,-1.20262 15.20601,-1.20262 4.0144,0 8.7586,0.36081 4.86591,0.36081 9.6102,0.96213 4.74421,0.48108 8.63701,1.20262 v 10.82418 q -4.13601,-0.60134 -8.1504,-0.96213 -4.0144,-0.3608 -7.4205,-0.60132 -3.28451,-0.24049 -5.47421,-0.24049 -7.29881,0 -12.28601,0.3608 -4.9876,0.24045 -8.1504,1.68372 -3.16281,1.44322 -4.86591,4.81068 -1.703,3.24725 -2.4329,9.02004 -0.60817,5.77279 -0.60817,14.91324 0,8.05793 0.36495,13.59022 0.48657,5.41199 1.82471,9.02005 1.4598,3.48775 3.8927,5.29178 2.5546,1.80403 6.569,2.52564 4.136,0.72161 10.097,0.72161 2.3113,0 4.86591,-0.12038 2.6762,-0.12038 4.9875,-0.24048 2.31131,-0.24047 3.8927,-0.48106 v -23.45237 h -16.423 v -11.30518 h 29.68201 v 44.25871 q -4.136,0.72161 -9.1236,1.32293 -4.86591,0.48106 -9.61021,0.84186 -4.74431,0.36079 -8.637,0.36081 z"
       stroke-width="26.3742"
       style="white-space:pre"
       id="path4" />
    <path
       id="path6"
       style="white-space:pre;stroke-width:2.64588"
       d="m 419.90613,220.65177 v 13.22951 h 14.01481 v -13.22951 z m 0,23.81312 v 30.93948 c 0,4.75888 -0.1238,8.49113 -0.3721,11.19858 -0.1654,2.70734 -0.78551,4.71807 -1.86036,6.03079 -1.0748,1.23062 -2.81125,2.04967 -5.20906,2.45987 -2.39789,0.32811 -5.82923,0.53286 -10.29404,0.61496 v 11.19857 c 6.11871,0 11.121,-0.16277 15.007,-0.49094 3.96869,-0.32821 7.06945,-1.06835 9.30184,-2.21698 2.31514,-1.14861 3.96894,-2.99651 4.96104,-5.53985 1.0749,-2.54304 1.73629,-6.02931 1.98439,-10.45958 0.33089,-4.43007 0.4961,-10.04778 0.4961,-16.85729 v -26.87761 z" />
    <g
       transform="matrix(10.000006,0,0,10.000161,87.313234,211.65686)"
       fill="#1565c0"
       id="g16">
      <path
         d="m 17.992,5.2914 2.9104,-4.2331 h -1.5875 l -2.9104,4.2331 2.9104,4.2336 1.5875,-2.417e-4 z"
         stroke-width="2.4254"
         style="white-space:pre"
         id="path8" />
      <path
         d="m 27.252,9.525 2.9104,-4.2335 -2.9104,-4.233 -1.5875,-2.345e-4 2.9104,4.2332 -2.9104,4.2335 z"
         stroke-width="2.4253"
         style="white-space:pre"
         id="path10" />
      <g
         transform="matrix(2.0415,0,0,2.6169,21.509,14.448)"
         style="white-space:pre;shape-inside:url(#rect55)"
         aria-label="/"
         id="g14">
        <path
           d="m 1.906,-5.521 -1.4256,4.0442 h -0.648 L 1.258,-5.521 Z"
           fill="#1565c0"
           id="path12" />
      </g>
    </g>
  </g>
</svg>
