<svg width="64" height="20" viewBox="0 0 33.867 10.583" xmlns="http://www.w3.org/2000/svg"><defs><filter id="prefix__a" x="0" y="0" width="1" height="1" color-interpolation-filters="sRGB"><feGaussianBlur/></filter></defs><g filter="url(#prefix__a)"><path d="M3.351 9.525q-.466 0-1.033-.024-.554-.024-1.096-.072-.529-.036-.97-.084V8.226q.454.036.945.072.504.036.958.06.453.012.78.012.668 0 1.046-.06t.605-.192q.151-.096.214-.24.076-.145.089-.337.025-.205.025-.445 0-.325-.025-.542-.026-.216-.114-.336-.088-.12-.277-.169-.189-.06-.491-.096L1.94 5.725q-.604-.073-.995-.24-.378-.181-.592-.47Q.15 4.726.076 4.33 0 3.933 0 3.452q0-.806.227-1.275.227-.47.642-.71.429-.252 1.008-.324.58-.085 1.285-.085.492 0 1.008.036.517.024.97.073.467.036.769.108v1.094q-.315-.048-.743-.084-.416-.036-.87-.048-.453-.024-.844-.024-.655 0-1.058.06-.39.048-.605.168-.252.133-.302.373-.05.229-.05.577 0 .41.05.638.063.216.264.3.214.085.643.133l2.066.228q.39.036.706.12.315.073.554.253.252.18.39.517.089.169.127.385.05.217.075.481.038.253.038.577 0 .686-.151 1.143-.139.457-.403.734-.252.264-.63.408-.378.133-.832.169-.453.048-.983.048zM11.286 9.525q-.9 0-1.533-.108-.62-.12-1.034-.397t-.645-.758q-.219-.48-.316-1.202-.085-.734-.085-1.768 0-1.035.085-1.756.098-.734.329-1.215.23-.481.644-.758t1.034-.384q.633-.12 1.521-.12.401 0 .876.035.486.036.96.097.475.048.865.12v1.082q-.414-.06-.815-.096-.402-.036-.743-.06-.328-.024-.547-.024-.73 0-1.229.036-.498.024-.815.168-.316.145-.486.481-.17.325-.243.902-.061.578-.061 1.492 0 .805.036 1.359.049.54.183.902.146.348.389.529.255.18.657.252.413.072 1.01.072.23 0 .486-.012l.499-.024q.231-.024.39-.048V5.977h-1.643v-1.13h2.968v4.425q-.414.073-.912.133-.487.048-.961.084-.475.036-.864.036zM32.465.9v1.322h1.402V.9zm0 2.38v3.095c0 .476-.012.849-.037 1.12-.017.27-.079.471-.186.603-.108.123-.281.205-.521.246-.24.032-.583.053-1.03.061v1.12c.613 0 1.113-.016 1.501-.05.397-.032.707-.106.93-.22a.998.998 0 00.497-.555c.107-.254.173-.603.198-1.046.033-.443.05-1.005.05-1.686V3.281z" style="white-space:pre"/><g fill="#1565c0"><path d="M17.198 5.291l2.91-4.233h-1.587l-2.91 4.233 2.91 4.234h1.588zM26.458 9.525l2.91-4.234-2.91-4.232h-1.587l2.91 4.232-2.91 4.234z" style="white-space:pre"/><path d="M24.606 0l-2.91 10.583h-1.323L23.283 0z" aria-label="/"/></g></g></svg>